<svg xmlns="http://www.w3.org/2000/svg" width="300" height="300" viewBox="0 0 300 300"><path fill="#8DB5CE" stroke="#212933" stroke-width="6" stroke-linecap="round" stroke-linejoin="round" stroke-miterlimit="10" d="M233.977 37.683L88.8 144.066l45.222 61.705 2.588-16.273 16.31 2.426 2.59-16.272 16.3 2.432 2.6-16.28 16.298 2.433 2.59-16.273 16.31 2.424 2.59-16.272 16.294 2.435 2.605-16.283 16.3 2.432 2.583-16.274 16.31 2.425 2.59-16.272 16.302 2.433-41.646-56.828c-1.968-2.69-6.257-2.92-9.56-.5z"/><g fill="#FFF" stroke="#212933" stroke-width="6" stroke-linecap="round" stroke-linejoin="round" stroke-miterlimit="10"><path d="M147.542 116.947L234.99 52.87M108.96 145.22l24.766-18.146"/></g><path fill="#212933" d="M132.058 227.93c6.547-4.796 7.865-14.103 2.95-20.81l-23.604-32.213L87.79 142.68c-4.918-6.708-14.18-8.24-20.727-3.442l-43.27 31.705c-9.123 6.686-11.722 18.685-5.785 26.78 5.924 8.094 18.164 9.25 27.288 2.567l3.668-2.69 21.977 29.993-3.665 2.688c-9.123 6.69-11.718 18.69-5.777 26.797 5.943 8.11 18.167 9.247 27.29 2.563l43.27-31.71zm-15.422-22.762c1.715 2.34.633 6.07-2.42 8.303L95.88 226.91c-3.05 2.234-6.93 2.143-8.645-.198l-16.257-22.186-16.242-22.163c-1.737-2.374-.647-6.088 2.404-8.325l18.334-13.434c3.054-2.235 6.922-2.157 8.66.215l16.244 22.163 16.258 22.185z"/></svg>