<?xml version="1.0" encoding="utf-8"?>
<!-- Generator: Adobe Illustrator 15.1.0, SVG Export Plug-In . SVG Version: 6.00 Build 0)  -->
<!DOCTYPE svg PUBLIC "-//W3C//DTD SVG 1.1//EN" "http://www.w3.org/Graphics/SVG/1.1/DTD/svg11.dtd">
<svg version="1.1" id="Layer_1" xmlns="http://www.w3.org/2000/svg" xmlns:xlink="http://www.w3.org/1999/xlink" x="0px" y="0px"
	 width="612px" height="792px" viewBox="0 0 612 792" enable-background="new 0 0 612 792" xml:space="preserve">
<g>
	<g>
		<path d="M184.58,246.698c0,0-10.167,0.24-17.225,4.784c-11.422,6.758-7.654,7.657-22.486,1.913s-64.588-9.568-79.898,0.955
			c-15.311,10.523,3.828,20.095,8.133,22.007c4.307,1.913,36.84,11.003,24.4,33.49s-25.834,72.245-28.228,96.166
			c-2.392,23.92,2.394,38.753,2.394,43.536c0,4.784-6.805,5.484-11.006,12.439s-2.393,24.878,4.307,29.184
			c6.699,4.307,22.008,3.349,32.055,0.479s26.523,1.593,34.925,4.785c8.401,3.191,20.572,6.168,48.8,4.279
			c28.229-1.89,44.732-21.985,49.277-30.114c4.547-8.13,30.143-66.738,40.189-112.19c3.561-15.502,7.781-37.931,11.722-65.31
			h142.817c60.281,0,88.987,22.49,88.987,88.032v119.582h47.845V373.481c0,0-0.008-0.047-0.015-0.119
			c0-63.633-24.267-126.666-124.382-126.666L184.58,246.698L184.58,246.698z M220.939,337.119
			c-5.497,40.042-32.891,89.41-32.891,89.41s-3.469,7.711-13.517,19.672c-10.047,11.959-28.969,3.271-31.517,1.319
			c-5.865-4.493-15.967-11.841-2.453-37.68c24.4-49.278,22.987-78.508,23.983-83.065c1.256-5.741,0.178-14.6,9.509-25.062
			c9.33-10.461,27.906-7.909,35.531-2.997C217.213,303.629,224.289,312.719,220.939,337.119z"/>
	</g>
	<polygon points="282.254,432.809 264.479,475.15 287.501,499.909 310.523,476.451 333.547,499.909 356.57,476.451 379.593,499.909 
		402.616,476.451 425.639,499.909 448.662,476.451 471.686,499.909 494.708,477.168 494.708,432.809 	"/>
</g>
</svg>
