<?xml version="1.0" encoding="utf-8"?>
<!-- Generator: Adobe Illustrator 15.1.0, SVG Export Plug-In . SVG Version: 6.00 Build 0)  -->
<!DOCTYPE svg PUBLIC "-//W3C//DTD SVG 1.1//EN" "http://www.w3.org/Graphics/SVG/1.1/DTD/svg11.dtd">
<svg version="1.1" id="Layer_1" xmlns="http://www.w3.org/2000/svg" xmlns:xlink="http://www.w3.org/1999/xlink" x="0px" y="0px"
	 width="612px" height="792px" viewBox="0 0 612 792" enable-background="new 0 0 612 792" xml:space="preserve">
<linearGradient id="SVGID_1_" gradientUnits="userSpaceOnUse" x1="41.2759" y1="98.5898" x2="62.0706" y2="0.7579" gradientTransform="matrix(6.12 0 0 6.12 -10.2358 91.9976)">
	<stop  offset="0" style="stop-color:#2EB0FF"/>
	<stop  offset="0.2699" style="stop-color:#45A9FF"/>
	<stop  offset="1" style="stop-color:#05008B"/>
</linearGradient>
<path fill="url(#SVGID_1_)" d="M306,90C137.088,90,0,227.088,0,396s137.088,306,306,306s306-137.088,306-306S474.912,90,306,90z"/>
<g>
	<g>
		<path fill="#FFFFFF" d="M199.025,287.419c0,0-8.672,0.205-14.691,4.08c-9.742,5.765-6.529,6.531-19.18,1.632
			s-55.09-8.161-68.147,0.814c-13.06,8.976,3.265,17.14,6.937,18.771c3.674,1.632,31.422,9.385,20.812,28.565
			c-10.611,19.18-22.035,61.62-24.077,82.023c-2.04,20.401,2.042,33.053,2.042,37.133c0,4.081-5.805,4.678-9.388,10.61
			c-3.583,5.932-2.041,21.219,3.674,24.892c5.714,3.673,18.771,2.856,27.341,0.409c8.569-2.448,22.622,1.358,29.789,4.08
			c7.165,2.723,17.546,5.261,41.623,3.65c24.077-1.612,38.153-18.752,42.029-25.686c3.879-6.935,25.711-56.923,34.279-95.69
			c3.037-13.223,6.637-32.353,9.998-55.705h121.812c51.416,0,75.9,19.182,75.9,75.085v101.996h40.809V395.557
			c0,0-0.007-0.04-0.013-0.102c0-54.274-20.698-108.038-106.089-108.038L199.025,287.419L199.025,287.419z M230.037,364.542
			c-4.688,34.153-28.054,76.261-28.054,76.261s-2.959,6.577-11.528,16.778c-8.57,10.2-24.709,2.79-26.883,1.125
			c-5.002-3.832-13.619-10.1-2.092-32.139c20.811-42.03,19.605-66.962,20.455-70.849c1.072-4.896,0.152-12.453,8.111-21.376
			c7.957-8.922,23.802-6.746,30.305-2.556C226.859,335.978,232.895,343.73,230.037,364.542z"/>
	</g>
	<polygon fill="#FFFFFF" points="282.335,446.159 267.174,482.274 286.811,503.392 306.446,483.384 326.084,503.392 
		345.722,483.384 365.358,503.392 384.995,483.384 404.632,503.392 424.27,483.384 443.907,503.392 463.544,483.995 
		463.544,446.159 	"/>
</g>
</svg>
