<svg xmlns="http://www.w3.org/2000/svg" width="300" height="300" viewBox="0 0 300 300"><path fill="#8DB5CE" stroke="#212933" stroke-width="7" stroke-linecap="round" stroke-linejoin="round" stroke-miterlimit="10" d="M233.864 37.833L88.88 144.073l45.163 61.625 2.584-16.252 16.288 2.423 2.586-16.25 16.28 2.428 2.597-16.258 16.275 2.43 2.587-16.252 16.286 2.42 2.588-16.25 16.272 2.433 2.602-16.26 16.277 2.43 2.58-16.254 16.288 2.422 2.586-16.25 16.28 2.43-41.59-56.752c-1.964-2.69-6.247-2.92-9.546-.503z"/><path fill="#FFF" stroke="#212933" stroke-width="7" stroke-linecap="round" stroke-linejoin="round" stroke-miterlimit="10" d="M147.545 116.99L234.877 53m-125.862 92.226l24.733-18.12"/><path fill="#212933" d="M132.082 227.825c6.538-4.79 7.854-14.083 2.946-20.78l-23.572-32.17-23.583-32.185c-4.91-6.7-14.16-8.23-20.7-3.438l-43.21 31.663c-9.112 6.677-11.708 18.66-5.778 26.744 5.917 8.082 18.14 9.236 27.25 2.562l3.664-2.687 21.947 29.953-3.66 2.685c-9.11 6.68-11.702 18.665-5.77 26.762 5.936 8.098 18.144 9.234 27.254 2.56l43.213-31.668v-.002zm-15.4-22.73c1.712 2.336.63 6.062-2.418 8.29L95.952 226.81c-3.046 2.23-6.92 2.14-8.633-.198l-16.236-22.157-16.22-22.132c-1.735-2.37-.646-6.08 2.4-8.313l18.31-13.416c3.05-2.23 6.914-2.153 8.65.215l16.222 22.135 16.235 22.155z"/></svg>
